<svg width="164" height="163" viewBox="0 0 164 163" fill="none" xmlns="http://www.w3.org/2000/svg">
<path d="M1.21027 59C3.61027 63.4 3.5436 66.5 3.21027 67.5C3.21027 68.5 8.71027 77.5 9.71027 78C10.5103 78.4 12.0436 78.5 12.7103 78.5C13.2103 80.5 24.2103 86.5 23.7103 86C22.8617 85.1515 19.8769 81.3333 18.7103 79C18.7878 78.5351 19.3418 78.094 20.2103 77.6679C21.1632 77.2003 22.4946 76.751 23.9905 76.3081C28.1696 75.0711 33.6321 73.8854 35.7103 72.5L39.2103 66.5C41.5436 67.1667 46.4103 68.5 47.2103 68.5C48.2103 68.5 64.7103 77 65.2103 78.5C65.6103 79.7 63.7103 92.6667 62.7103 99L49.7103 109.5L45.2103 105.5V112.5L41.7103 107L41.2103 113L38.2103 109V115.5C37.8769 115.5 37.6103 115.9 39.2103 117.5C42.8103 120.7 49.3769 118.833 52.2103 117.5C57.84 112.75 67.7068 106.211 73.7103 105C81.3564 103.457 84.8824 108.066 88.7103 109L78.2103 131C79.3769 131.833 82.6103 133.6 86.2103 134C89.8103 134.4 92.7103 132.167 93.7103 131C96.1103 133 94.7103 143.5 93.7103 148.5C93.7103 155.7 77.0436 158.167 68.7103 158.5C71.5436 160.167 79.5103 163.1 88.7103 161.5C100.21 159.5 102.21 156 107.21 147C112.21 138 130.71 132 131.21 138C131.61 142.8 121.044 154.667 115.71 160C130.71 158.5 145.21 137.5 151.21 128.5C156.01 121.3 158.877 107.167 159.71 101C159.71 87.5 137.877 69.3333 125.71 62.5C142.71 60.5 164.133 84.7691 162.71 80.5C161.71 77.5 155.21 66 149.21 55.5C149.21 55.5 147.01 51.5 143.71 47C141.186 43.5573 138.71 41.5 136.71 40C134.71 38.5 123.71 32 123.71 30V20C123.044 18.3333 121.71 14 121.71 10C121.71 6 119.044 2.33333 117.71 1C112.877 8 101.01 22 92.2103 22C81.2103 22 49.2103 36.5 48.2103 39C47.4103 41 37.2103 48.5 32.2103 52C25.5436 54.3333 11.7103 59 9.71027 59C7.21027 59 -1.78973 53.5 1.21027 59Z" fill="black" stroke="#9F2C2C"/>
<path d="M23.2102 80L20.7102 77.5L23.7102 76.5C22.9102 76.9 23.0435 79 23.2102 80Z" fill="#2D2A2A" stroke="#9F2C2C" stroke-width="0.65"/>
<path d="M121.71 10.5C121.527 18.6404 119.07 35.8368 110.71 39.5" stroke="#9F2C2C" stroke-width="0.65" stroke-linecap="square"/>
<path d="M85.7102 75C81.8769 80.1667 76.9102 92.6 87.7102 101C83.2102 102.333 74.0102 105 73.2102 105" stroke="#9F2C2C" stroke-width="0.65" stroke-linecap="square"/>
<path d="M58.0745 49.7035L50.0901 55.47L40.5557 53.7364L50.2909 47.5413L58.0745 49.7035Z" fill="#C4C4C4" stroke="white"/>
</svg>
