<svg width="164" height="163" viewBox="0 0 164 163" fill="none" xmlns="http://www.w3.org/2000/svg">
<path d="M1.81543 59C4.21543 63.4 4.14876 66.5 3.81543 67.5C3.81543 68.5 9.31543 77.5 10.3154 78C11.1154 78.4 12.6488 78.5 13.3154 78.5C13.8154 80.5 24.8154 86.5 24.3154 86C23.4669 85.1515 20.4821 81.3333 19.3154 79C19.3929 78.5351 19.9469 78.094 20.8154 77.6679C21.7683 77.2003 23.0998 76.751 24.5957 76.3081C28.7747 75.0711 34.2373 73.8854 36.3154 72.5L39.8154 66.5C42.1488 67.1667 47.0154 68.5 47.8154 68.5C48.8154 68.5 65.3154 77 65.8154 78.5C66.2154 79.7 64.3154 92.6667 63.3154 99L50.3154 109.5L45.8154 105.5V112.5L42.3154 107L41.8154 113L38.8154 109V115.5C38.4821 115.5 38.2154 115.9 39.8154 117.5C43.4154 120.7 49.9821 118.833 52.8154 117.5C58.4452 112.75 68.312 106.211 74.3154 105C81.9616 103.457 85.4876 108.066 89.3154 109L78.8154 131C79.9821 131.833 83.2154 133.6 86.8154 134C90.4154 134.4 93.3154 132.167 94.3154 131C96.7154 133 95.3154 143.5 94.3154 148.5C94.3154 155.7 77.6488 158.167 69.3154 158.5C72.1488 160.167 80.1154 163.1 89.3154 161.5C100.815 159.5 102.815 156 107.815 147C112.815 138 131.315 132 131.815 138C132.215 142.8 121.649 154.667 116.315 160C131.315 158.5 145.815 137.5 151.815 128.5C156.615 121.3 159.482 107.167 160.315 101C160.315 87.5 138.482 69.3333 126.315 62.5C143.315 60.5 164.738 84.7691 163.315 80.5C162.315 77.5 155.815 66 149.815 55.5C149.815 55.5 147.615 51.5 144.315 47C141.791 43.5573 139.315 41.5 137.315 40C135.315 38.5 124.315 32 124.315 30V20C123.649 18.3333 122.315 14 122.315 10C122.315 6 119.649 2.33333 118.315 1C113.482 8 101.615 22 92.8154 22C81.8154 22 49.8154 36.5 48.8154 39C48.0154 41 37.8154 48.5 32.8154 52C26.1488 54.3333 12.3154 59 10.3154 59C7.81543 59 -1.18457 53.5 1.81543 59Z" fill="black" stroke="#9F2C2C"/>
<path d="M23.8154 80L21.3154 77.5L24.3154 76.5C23.5154 76.9 23.6488 79 23.8154 80Z" fill="#2D2A2A" stroke="#9F2C2C" stroke-width="0.65"/>
<path d="M122.315 10.5C122.132 18.6404 119.675 35.8368 111.315 39.5" stroke="#9F2C2C" stroke-width="0.65" stroke-linecap="square"/>
<path d="M86.3154 75C82.4821 80.1667 77.5154 92.6 88.3154 101C83.8154 102.333 74.6154 105 73.8154 105" stroke="#9F2C2C" stroke-width="0.65" stroke-linecap="square"/>
<path d="M58.6797 49.7035L50.6953 55.47L41.1609 53.7364L50.8961 47.5413L58.6797 49.7035Z" fill="#A64D4D" stroke="#FF8080"/>
</svg>
