<svg width="164" height="163" viewBox="0 0 164 163" fill="none" xmlns="http://www.w3.org/2000/svg">
<path d="M1.60516 59C4.00516 63.4 3.9385 66.5 3.60516 67.5C3.60516 68.5 9.10516 77.5 10.1052 78C10.9052 78.4 12.4385 78.5 13.1052 78.5C13.6052 80.5 24.6052 86.5 24.1052 86C23.2566 85.1515 20.2718 81.3333 19.1052 79C19.1826 78.5351 19.7367 78.094 20.6052 77.6679C21.5581 77.2003 22.8895 76.751 24.3854 76.3081C28.5645 75.0711 34.027 73.8854 36.1052 72.5L39.6052 66.5C41.9385 67.1667 46.8052 68.5 47.6052 68.5C48.6052 68.5 65.1052 77 65.6052 78.5C66.0052 79.7 64.1052 92.6667 63.1052 99L50.1052 109.5L45.6052 105.5V112.5L42.1052 107L41.6052 113L38.6052 109V115.5C38.2718 115.5 38.0052 115.9 39.6052 117.5C43.2052 120.7 49.7718 118.833 52.6052 117.5C58.2349 112.75 68.1017 106.211 74.1052 105C81.7513 103.457 85.2773 108.066 89.1052 109L78.6052 131C79.7718 131.833 83.0052 133.6 86.6052 134C90.2052 134.4 93.1052 132.167 94.1052 131C96.5052 133 95.1052 143.5 94.1052 148.5C94.1052 155.7 77.4385 158.167 69.1052 158.5C71.9385 160.167 79.9052 163.1 89.1052 161.5C100.605 159.5 102.605 156 107.605 147C112.605 138 131.105 132 131.605 138C132.005 142.8 121.438 154.667 116.105 160C131.105 158.5 145.605 137.5 151.605 128.5C156.405 121.3 159.272 107.167 160.105 101C160.105 87.5 138.272 69.3333 126.105 62.5C143.105 60.5 164.528 84.7691 163.105 80.5C162.105 77.5 155.605 66 149.605 55.5C149.605 55.5 147.405 51.5 144.105 47C141.581 43.5573 139.105 41.5 137.105 40C135.105 38.5 124.105 32 124.105 30V20C123.438 18.3333 122.105 14 122.105 10C122.105 6 119.438 2.33333 118.105 1C113.272 8 101.405 22 92.6052 22C81.6052 22 49.6052 36.5 48.6052 39C47.8052 41 37.6052 48.5 32.6052 52C25.9385 54.3333 12.1052 59 10.1052 59C7.60516 59 -1.39484 53.5 1.60516 59Z" fill="black" stroke="#9F2C2C"/>
<path d="M23.6052 80L21.1052 77.5L24.1052 76.5C23.3052 76.9 23.4386 79 23.6052 80Z" fill="#2D2A2A" stroke="#9F2C2C" stroke-width="0.65"/>
<path d="M122.105 10.5C121.922 18.6404 119.465 35.8368 111.105 39.5" stroke="#9F2C2C" stroke-width="0.65" stroke-linecap="square"/>
<path d="M86.1052 75C82.2719 80.1667 77.3052 92.6 88.1052 101C83.6052 102.333 74.4052 105 73.6052 105" stroke="#9F2C2C" stroke-width="0.65" stroke-linecap="square"/>
<path d="M50.6052 47L39.6052 54L50.6052 56L59.6052 49.5L50.6052 47Z" stroke="black"/>
</svg>
