<svg width="186" height="191" viewBox="0 0 186 191" fill="none" xmlns="http://www.w3.org/2000/svg">
<path d="M93 189.5C143.573 189.5 184.5 147.376 184.5 95.5C184.5 43.6242 143.573 1.5 93 1.5C42.4275 1.5 1.5 43.6242 1.5 95.5C1.5 147.376 42.4275 189.5 93 189.5Z" stroke="url(#paint0_angular_1_18)" stroke-width="3"/>
<path d="M12.5 73.5C14.9 77.9 14.8333 81 14.5 82C14.5 83 20 92 21 92.5C21.8 92.9 23.3333 93 24 93C24.5 95 35.5 101 35 100.5C34.1515 99.6515 31.1667 95.8333 30 93.5C30.0775 93.0351 30.6315 92.594 31.5 92.1679C32.4529 91.7003 33.7844 91.251 35.2803 90.8081C39.4593 89.5711 44.9219 88.3854 47 87L50.5 81C52.8333 81.6667 57.7 83 58.5 83C59.5 83 76 91.5 76.5 93C76.9 94.2 75 107.167 74 113.5L61 124L56.5 120V127L53 121.5L52.5 127.5L49.5 123.5V130C49.1667 130 48.9 130.4 50.5 132C54.1 135.2 60.6667 133.333 63.5 132C69.1298 127.25 78.9965 120.711 85 119.5C92.6462 117.957 96.1721 122.566 100 123.5L89.5 145.5C90.6667 146.333 93.9 148.1 97.5 148.5C101.1 148.9 104 146.667 105 145.5C107.4 147.5 106 158 105 163C105 170.2 88.3333 172.667 80 173C82.8333 174.667 90.8 177.6 100 176C111.5 174 113.5 170.5 118.5 161.5C123.5 152.5 142 146.5 142.5 152.5C142.9 157.3 132.333 169.167 127 174.5C142 173 156.5 152 162.5 143C167.3 135.8 170.167 121.667 171 115.5C171 102 149.167 83.8333 137 77C154 75 175.423 99.2691 174 95C173 92 166.5 80.5 160.5 70C160.5 70 158.299 66 155 61.5C152.476 58.0573 150 56 148 54.5C146 53 135 46.5 135 44.5V34.5C134.333 32.8333 133 28.5 133 24.5C133 20.5 130.333 16.8333 129 15.5C124.167 22.5 112.3 36.5 103.5 36.5C92.5 36.5 60.5 51 59.5 53.5C58.7 55.5 48.5 63 43.5 66.5C36.8333 68.8333 23 73.5 21 73.5C18.5 73.5 9.5 68 12.5 73.5Z" fill="url(#paint1_radial_1_18)" stroke="black"/>
<path d="M123 69C138.2 63 161.667 79.6667 170 87L174.5 96C166.333 88.8333 148 76 137.5 77C137.5 77 137.332 77.0357 137.781 77.3328C148.083 84.145 169.603 100.96 170.5 111.5C172.5 135 152 167 127.5 174.5C135.5 171.134 148.552 157.981 154 145.5C156.732 139.241 157.5 132.5 157.5 132.5C157.5 132.5 159.5 120.5 156.5 114C152.09 104.445 148.5 100.5 148.5 100.5C135.5 85.5 111.167 82.6667 99.5 83.5C101 81.1667 107.8 75 123 69Z" fill="url(#paint2_linear_1_18)"/>
<path d="M12.5 73.5C14.9 77.9 14.8333 81 14.5 82C14.5 83 20 92 21 92.5C21.8 92.9 23.3333 93 24 93C24.5 95 35.5 101 35 100.5C34.1515 99.6515 31.1667 95.8333 30 93.5C30.0775 93.0351 30.6315 92.594 31.5 92.1679C32.4529 91.7003 33.7844 91.251 35.2803 90.8081C39.4593 89.5711 44.9219 88.3854 47 87L50.5 81C52.8333 81.6667 57.7 83 58.5 83C59.5 83 76 91.5 76.5 93C76.9 94.2 75 107.167 74 113.5L61 124L56.5 120V127L53 121.5L52.5 127.5L49.5 123.5V130C49.1667 130 48.9 130.4 50.5 132C54.1 135.2 60.6667 133.333 63.5 132C69.1298 127.25 78.9965 120.711 85 119.5C92.6462 117.957 96.1721 122.566 100 123.5L89.5 145.5C90.6667 146.333 93.9 148.1 97.5 148.5C101.1 148.9 104 146.667 105 145.5C107.4 147.5 106 158 105 163C105 170.2 88.3333 172.667 80 173C82.8333 174.667 90.8 177.6 100 176C111.5 174 113.5 170.5 118.5 161.5C123.5 152.5 142 146.5 142.5 152.5C142.9 157.3 132.333 169.167 127 174.5C142 173 156.5 152 162.5 143C167.3 135.8 170.167 121.667 171 115.5C171 102 149.167 83.8333 137 77C154 75 175.423 99.2691 174 95C173 92 166.5 80.5 160.5 70C160.5 70 158.299 66 155 61.5C152.476 58.0573 150 56 148 54.5C146 53 135 46.5 135 44.5V34.5C134.333 32.8333 133 28.5 133 24.5C133 20.5 130.333 16.8333 129 15.5C124.167 22.5 112.3 36.5 103.5 36.5C92.5 36.5 60.5 51 59.5 53.5C58.7 55.5 48.5 63 43.5 66.5C36.8333 68.8333 23 73.5 21 73.5C18.5 73.5 9.5 68 12.5 73.5Z" stroke="black"/>
<path d="M32 92L34.5 94.5C34.3333 93.5 34.2 91.4 35 91" stroke="black" stroke-width="0.65"/>
<path d="M133 25C132.817 33.1404 130.36 50.3368 122 54" stroke="black" stroke-width="0.65" stroke-linecap="square"/>
<path d="M97 89.5C93.1667 94.6667 88.2 107.1 99 115.5C94.5 116.833 85.3 119.5 84.5 119.5" stroke="black" stroke-width="0.65" stroke-linecap="square"/>
<defs>
<radialGradient id="paint0_angular_1_18" cx="0" cy="0" r="1" gradientUnits="userSpaceOnUse" gradientTransform="translate(93 95.5) rotate(91.9784) scale(208.558 202.935)">
<stop offset="0.25" stop-color="#602020" stop-opacity="0.504662"/>
<stop offset="0.489583" stop-color="#070404"/>
<stop offset="1" stop-color="#FF0000" stop-opacity="0"/>
</radialGradient>
<radialGradient id="paint1_radial_1_18" cx="0" cy="0" r="1" gradientUnits="userSpaceOnUse" gradientTransform="translate(101 83.5) rotate(94.9301) scale(93.3077 94.0091)">
<stop stop-color="#833E3E" stop-opacity="0.38"/>
<stop offset="0.328125" stop-color="#B7B7B7" stop-opacity="0"/>
<stop offset="0.625" stop-color="#AB7C7C" stop-opacity="0.341008"/>
<stop offset="1" stop-color="#9D5454" stop-opacity="0.53"/>
</radialGradient>
<linearGradient id="paint2_linear_1_18" x1="76" y1="71.5" x2="240" y2="201" gradientUnits="userSpaceOnUse">
<stop/>
<stop offset="0.5625" stop-color="#6F3333"/>
<stop offset="0.989583" stop-color="#681717"/>
</linearGradient>
</defs>
</svg>
